<svg xmlns="http://www.w3.org/2000/svg">
  <!-- Original compact object drawings, inspired by the official game's ink-sketch style. -->
  <symbol id="rock" viewBox="0 0 64 64">
    <g fill="none" stroke="currentColor" stroke-width="2.6" stroke-linecap="round" stroke-linejoin="round">
      <path d="M12 23 Q9 25 8 34 L7 43 Q7 49 16 50 L44 49 Q54 48 56 40 L57 32 Q56 24 48 22 L31 18 Q20 18 12 23Z"/>
      <path d="M13 35 L12 42 L15 44 M47 29 L48 32" stroke-width="2"/>
    </g>
  </symbol>
  <symbol id="paper" viewBox="0 0 64 64">
    <g transform="rotate(-5 32 32)" fill="none" stroke="currentColor" stroke-linecap="round" stroke-linejoin="round">
      <path d="M14 9 L49 10 L50 55 L13 54Z" stroke-width="2.6"/>
      <path d="M21 12 L21 51" stroke-width="1.9"/>
      <path d="M17 19 L45 19 M17 25 L45 25 M17 31 L45 31 M17 37 L45 37 M17 43 L45 43 M17 49 L45 49" stroke-width="1.9"/>
    </g>
  </symbol>
  <symbol id="scissors" viewBox="0 0 64 64">
    <g fill="none" stroke="currentColor" stroke-width="2.4" stroke-linecap="round" stroke-linejoin="round">
      <ellipse cx="15" cy="41" rx="9" ry="5" transform="rotate(-26 15 41)"/>
      <ellipse cx="29" cy="49" rx="5" ry="9" transform="rotate(-8 29 49)"/>
      <path d="M22 36 L30 33 L44 9 L36 34 L54 26 L34 39 L33 42"/>
      <path d="M24 40 L28 37 M29 40 L30 37"/>
      <circle cx="31" cy="35" r="1.4" stroke-width="1.8"/>
    </g>
  </symbol>
</svg>
